# xmcd CD database file
#
# Track frame offsets:
#	225
#	14854
#	33684
#	47897
#	65001
#	80656
#	94317
#	108809
#	129065
#	142087
#
# Disc length: 2086 seconds
#
# Revision: 0
# Processed by: cddbd v1.5.1PL0 Copyright (c) Steve Scherf et al.
# Submitted via: CDex 1.51
#
DISCID=9108230a
DTITLE=Nielsen, Alyssa - This Heart
DYEAR=1994
DGENRE=Country
TTITLE0=Playin' Second Fiddle
TTITLE1=Bigger Fools Than You
TTITLE2=Middle Of The River
TTITLE3=The Beating Of My Heart
TTITLE4=Ride A Wild Pony
TTITLE5=The Chosen Two (& Rocko Vaujeois)
TTITLE6=Chippin' Away (At Your Heart Of Stone)
TTITLE7=Where Your Heart Lies
TTITLE8=It Ain't Love
TTITLE9=Since I Fell For You
EXTD=YEAR: 1994
EXTT0=
EXTT1=
EXTT2=
EXTT3=
EXTT4=
EXTT5=
EXTT6=
EXTT7=
EXTT8=
EXTT9=
PLAYORDER=
